<svg viewBox="0 0 120 34" xml:space="preserve" xmlns="http://www.w3.org/2000/svg"><path d="M113.88 11.24q2.415 0 2.415 2.384v2.755h-2.508v-3.003l-4.83 3.065v8.174h1.518v2.105h-5.976v-2.105h1.95v-11.3h-1.95v-2.106h4.458v2.725l3.809-2.384q.495-.31 1.114-.31zm-11.857 15.48h-7.709q-2.229 0-2.57-1.672-.123-.495-.123-1.052V13.965q0-1.3.712-2.013.743-.743 2.229-.743h7.461v3.932h-2.105v-1.796h-5.82v11.27h5.82v-1.796h2.105zM84.438 10.931q2.415 0 2.415 2.384v11.3h1.981v2.105H82.86v-2.105h1.486V13.098l-6.16 3.87v7.647H79.7v2.105h-5.975v-2.105h1.95v-11.3h-1.95V11.24h4.458v3.22l5.14-3.22q.495-.31 1.114-.31zM71.249 24.615v2.105H60.475q-1.579 0-2.136-.619-.496-.557-.496-2.105V22.85q0-1.114.28-1.517.402-.588 1.826-1.455l6.81-4.241v-2.291h-6.067v1.795H58.71v-3.9h7.74q1.579 0 2.198.68.65.682.65 1.982v10.712zm-4.49-6.502-6.439 4.025v2.477h6.44zm-13.095 6.502h2.012v2.105h-6.501v-2.105h1.95V5.606h-1.95V3.501h4.489zm-7.585-13.374v19.597q0 1.3-.65 1.981-.62.681-2.198.681h-7.152v-4.21h2.105v2.074h5.356v-8.142l-5.449 3.375q-.712.433-1.424.433t-1.238-.464q-.526-.496-.526-1.548V13.346H32.92V11.24h4.49v13.343l6.16-3.87v-7.368h-1.517V11.24zM32.643 24.615v2.105H21.869q-1.579 0-2.136-.619-.496-.557-.496-2.105V22.85q0-1.114.279-1.517.402-.588 1.827-1.455l6.81-4.241v-2.291h-6.067v1.795h-1.982v-3.9h7.74q1.579 0 2.198.68.65.682.65 1.982v10.712zm-4.49-6.502-6.439 4.025v2.477h6.44zM14.75 3.5q2.043 0 2.755.774.712.774.712 3.065V9.6q0 1.765-.743 2.57-.371.403-.99.774-.589.372-1.456.898l-6.842 4.272v6.502h2.013v2.105H3.696v-2.105h1.95V5.637h-1.95V3.5zm1.207 2.137h-7.77v10l7.77-4.8z" style="fill:#22d3ee;stroke-width:.89742"/></svg>